HIERARCHY
ROOT hip
{
	OFFSET 0.000000 0.000000 0.000000 
	CHANNELS 6 Xposition Yposition Zposition Xrotation Zrotation Yrotation
	JOINT abdomen
	{
		OFFSET 0.000000 3.402643 0.000000 
		CHANNELS 3 Xrotation Zrotation Yrotation
		JOINT chest
		{
			OFFSET 0.000000 8.438565 -0.680529 
			CHANNELS 3 Xrotation Zrotation Yrotation
			JOINT neck
			{
				OFFSET 0.000000 10.207942 -0.272212 
				CHANNELS 3 Xrotation Zrotation Yrotation
				JOINT head
				{
					OFFSET 0.000000 3.130431 0.000000 
					CHANNELS 3 Xrotation Zrotation Yrotation
					End Site
					{
						OFFSET 0.000000 3.130435 0.000000 
					}
				}
			}
			JOINT lCollar
			{
				OFFSET 3.470700 6.669187 -0.816635 
				CHANNELS 3 Yrotation Zrotation Xrotation
				JOINT lShldr
				{
					OFFSET 3.198488 0.000000 0.000000 
					CHANNELS 3 Zrotation Yrotation Xrotation
					JOINT lForeArm
					{
						OFFSET 10.139888 0.000000 0.000000 
						CHANNELS 3 Yrotation Zrotation Xrotation
						JOINT lHand
						{
							OFFSET 8.370511 0.000000 0.000000 
							CHANNELS 3 Zrotation Yrotation Xrotation
							End Site
							{
								OFFSET 4.083176 0.000000 0.000000 
							}
						}
					}
				}
			}
			JOINT rCollar
			{
				OFFSET -3.470700 6.669187 -0.816635 
				CHANNELS 3 Yrotation Zrotation Xrotation
				JOINT rShldr
				{
					OFFSET -3.198488 0.000000 0.000000 
					CHANNELS 3 Zrotation Yrotation Xrotation
					JOINT rForeArm
					{
						OFFSET -10.139888 0.000000 0.000000 
						CHANNELS 3 Yrotation Zrotation Xrotation
						JOINT rHand
						{
							OFFSET -8.370511 0.000000 0.000000 
							CHANNELS 3 Zrotation Yrotation Xrotation
							End Site
							{
								OFFSET -4.083176 0.000000 0.000000 
							}
						}
					}
				}
			}
		}
	}
	JOINT lThigh
	{
		OFFSET 5.308129 -1.633274 1.361059 
		CHANNELS 3 Xrotation Zrotation Yrotation
		JOINT lShin
		{
			OFFSET -2.041588 -20.007561 0.000000 
			CHANNELS 3 Xrotation Zrotation Yrotation
			JOINT lFoot
			{
				OFFSET 0.000000 -19.190928 -1.224953 
				CHANNELS 3 Xrotation Yrotation Zrotation
				End Site
				{
					OFFSET 0.000000 -2.449906 4.627600 
				}
			}
		}
	}
	JOINT rThigh
	{
		OFFSET -5.308129 -1.633274 1.361059 
		CHANNELS 3 Xrotation Zrotation Yrotation
		JOINT rShin
		{
			OFFSET 2.041588 -20.007561 0.000000 
			CHANNELS 3 Xrotation Zrotation Yrotation
			JOINT rFoot
			{
				OFFSET 0.000000 -19.190928 -1.224953 
				CHANNELS 3 Xrotation Yrotation Zrotation
				End Site
				{
					OFFSET 0.000000 -2.449906 4.627600 
				}
			}
		}
	}
}
MOTION
Frames: 18
Frame Time: 0.016667
24.731865 54.208500 -26.964809 2.900227 6.622442 -8.444524 -4.542055 -2.318345 2.753755 4.667981 0.054842 1.270640 3.825016 -2.835862 -1.403571 19.233118 3.839422 -0.578478 -0.966184 -2.090659 -0.113862 -88.421448 7.328343 -22.911041 -37.281425 -0.414290 24.860542 1.546616 -3.350823 -9.437572 0.956406 2.080914 -0.113715 91.026672 -9.764560 -28.150686 22.335970 1.142648 -0.873737 -1.610157 3.366183 37.815395 -19.356127 -7.065612 -10.417218 20.196205 5.841305 2.794979 -2.280526 1.781210 -1.125402 4.676950 0.976884 3.671134 17.984520 -7.622096 -2.216773 -27.611404 -33.207821 -12.252765 
24.901548 54.267967 -26.686562 3.026677 6.397388 -8.461200 -4.709009 -2.343790 2.815434 4.541115 -0.173810 1.302213 3.736900 -2.651935 -1.521326 19.243883 3.916081 -0.622020 -0.966184 -2.090659 -0.113862 -87.946877 7.591873 -21.049259 -38.394066 -0.426139 24.851435 1.545657 -3.350995 -10.863354 0.956406 2.080914 -0.113715 91.128181 -9.263159 -28.811081 21.886833 1.140831 -0.874030 -1.604421 3.374103 38.791962 -19.245367 -6.961680 -10.542411 20.202204 5.819628 2.790992 -2.514907 1.702564 -1.122826 4.479029 1.044337 3.327475 18.646969 -7.560509 -2.266136 -26.946684 -32.997547 -11.788042 
25.090305 54.310478 -26.393826 2.635155 6.692199 -8.755015 -4.758227 -2.513494 2.812558 4.345814 -0.183190 1.289652 4.293429 -2.289461 -1.642089 19.490108 4.027991 -0.651629 -0.966184 -2.090659 -0.113862 -87.842873 7.645835 -19.859398 -39.325672 -0.442310 24.840082 1.545062 -3.351113 -11.752026 0.956406 2.080914 -0.113715 90.986267 -8.837155 -28.436398 21.506104 1.146972 -0.877380 -1.604509 3.374175 39.123989 -18.647114 -7.467359 -10.222337 20.218805 5.799402 2.807740 -2.704124 1.720644 -1.145072 4.770956 0.312777 2.519913 19.082121 -7.587718 -2.341777 -25.239166 -32.616913 -10.637252 
25.338289 54.349808 -26.098740 2.681833 6.223698 -8.634429 -4.607563 -2.309593 2.525191 4.804822 -0.200905 1.154310 3.971673 -2.665384 -1.560970 19.410023 3.894749 -0.633871 -0.966184 -2.090659 -0.113862 -88.161400 7.354437 -19.186506 -40.453526 -0.459165 24.834435 1.532440 -3.341743 -12.766502 0.956406 2.080914 -0.113715 90.606033 -8.025233 -28.392572 21.232761 1.151395 -0.879760 -1.604712 3.374342 39.895473 -18.471718 -7.224025 -9.866719 20.286898 5.809047 2.800419 -2.679384 1.014784 -1.189568 4.643176 0.429941 1.637310 19.768286 -7.553596 -2.375298 -24.991270 -31.683468 -10.203270 
25.535763 54.454609 -25.818956 2.268997 6.167073 -8.730043 -4.637168 -2.261845 2.558854 4.599651 -0.109733 1.179554 3.815805 -2.676540 -1.688809 19.292328 3.877068 -0.704042 -0.966184 -2.090659 -0.113862 -88.401520 7.518658 -18.731979 -41.704758 -0.479515 24.818747 1.545304 -3.351063 -11.390697 0.956406 2.080914 -0.113715 90.543221 -7.611098 -28.677498 21.262051 1.150921 -0.879506 -1.604860 3.374466 40.461884 -17.811705 -7.372846 -9.548660 20.386589 5.819312 2.822689 -2.981835 0.568074 -1.244305 5.132945 0.244547 0.956889 20.381557 -7.572874 -2.464502 -25.696453 -30.392084 -10.161646 
25.756077 54.500416 -25.469704 2.247672 5.757316 -9.002104 -4.707811 -2.082700 2.766444 4.726686 -0.191872 1.284987 3.611452 -2.831078 -1.804533 19.145157 3.850122 -0.787659 -0.966184 -2.090659 -0.113862 -88.735909 7.960575 -17.253098 -43.088943 -0.499451 24.802925 1.532156 -3.341808 -13.108298 0.956406 2.080914 -0.113715 90.163795 -7.618383 -27.876942 21.750160 1.143032 -0.875237 -1.604527 3.374190 39.192348 -17.580400 -7.212097 -9.731790 20.749924 5.829594 2.838591 -3.635340 0.610044 -1.279141 5.042364 0.204610 0.227911 20.986784 -7.488141 -2.526160 -23.964540 -30.129559 -9.150078 
25.991817 54.558117 -25.213356 2.265438 5.269339 -9.557447 -4.648115 -1.683738 2.732373 4.931689 0.118617 1.285500 3.336211 -2.463337 -1.655882 19.050108 4.072224 -0.704750 -0.966184 -2.090659 -0.113862 -89.378716 7.749791 -16.595661 -44.309467 -0.516665 24.796291 1.531905 -3.341867 -13.411033 0.956406 2.080914 -0.113715 89.465462 -7.109690 -26.609312 22.472643 1.140450 -0.872529 -1.604332 3.374033 38.459927 -17.521772 -6.822521 -9.138521 21.107107 5.861709 2.858769 -4.135001 0.514077 -1.297839 4.718476 0.331300 0.276080 21.891287 -7.460793 -2.633738 -23.256020 -29.651497 -8.606944 
26.198240 54.645130 -24.973139 2.067630 4.743017 -9.692020 -4.675985 -1.579033 2.632597 4.746098 0.018271 1.237373 3.414381 -2.391012 -1.692894 19.078974 4.033428 -0.699991 -0.966184 -2.090659 -0.113862 -89.426559 8.278192 -15.502021 -46.677071 -0.554676 24.770510 1.528248 -3.332716 -14.807515 0.956406 2.080914 -0.113715 89.258774 -6.993230 -24.267246 23.868721 1.127092 -0.863839 -1.599804 3.365759 36.419491 -17.182577 -6.452556 -8.764651 21.319069 5.867095 2.872494 -4.458398 0.203234 -1.323687 4.421683 0.556290 0.030725 23.091721 -7.392401 -2.742183 -21.677084 -30.279158 -7.940384 
26.419733 54.677986 -24.502598 1.540160 5.447262 -9.951148 -4.392441 -1.675750 2.599063 5.264586 0.518930 1.217105 3.043635 -2.576094 -1.746212 18.931038 3.948854 -0.735787 -0.966184 -2.090659 -0.113862 -89.521523 8.708408 -14.116708 -48.984848 -0.584650 24.739491 1.535331 -3.333491 -17.552233 0.956406 2.080914 -0.113715 88.911697 -6.857648 -22.102415 26.104515 1.118208 -0.855713 -1.603727 3.356596 33.059544 -16.136703 -7.467051 -8.159625 20.961100 5.838513 2.852901 -4.899298 -0.200810 -1.391983 4.397625 -0.926087 -1.350951 24.484318 -7.336632 -2.847495 -19.583229 -29.679283 -6.709823 
26.710228 54.714252 -24.165825 1.354266 5.662491 -9.778150 -4.516753 -1.834174 2.356699 5.137362 0.437368 1.086668 2.633312 -2.766187 -1.699883 18.704395 3.826657 -0.724660 -0.966184 -2.090659 -0.113862 -89.348915 9.513730 -12.869980 -52.188145 -0.621326 24.699860 1.533020 -3.334274 -19.934475 0.956406 2.080914 -0.113715 88.638702 -7.655754 -19.025673 29.433693 1.092111 -0.837813 -1.596629 3.346814 29.427309 -15.655958 -8.032087 -8.182379 20.788708 5.833216 2.820197 -4.850597 -0.424886 -1.477040 3.954050 -1.825639 -2.480966 25.783842 -7.259295 -2.973224 -18.704853 -28.533930 -6.012133 
26.957981 54.701420 -23.873917 1.030299 5.594804 -9.703756 -4.496249 -1.773816 2.278119 5.089000 0.574234 1.051005 2.545046 -2.356081 -1.802445 18.627840 3.971830 -0.753251 -0.966184 -2.090659 -0.113862 -89.062218 10.232604 -11.496700 -56.196537 -0.669827 24.649506 1.531681 -3.334777 -21.330959 0.956406 2.080914 -0.113715 88.070068 -8.505432 -15.666142 33.485222 1.068850 -0.809543 -1.597778 3.336414 25.403872 -15.290478 -8.299499 -8.100246 21.175102 5.799265 2.868593 -5.117300 -0.588962 -1.507688 3.919734 -2.204050 -3.081458 27.032959 -7.196271 -3.118837 -18.071413 -27.718626 -5.498603 
27.199255 54.698120 -23.509941 0.529860 5.585700 -9.420375 -4.212021 -1.631552 2.206790 5.431877 0.800248 1.026261 1.861386 -2.260360 -1.908792 18.315887 4.081480 -0.825181 -0.966184 -2.090659 -0.113862 -88.435577 10.625075 -8.836826 -60.465481 -0.716598 24.594711 1.526135 -3.326491 -23.127834 0.956406 2.080914 -0.113715 87.029121 -9.699888 -12.562539 39.137779 1.037341 -0.763995 -1.578497 3.325900 21.830809 -14.523258 -8.704819 -8.136753 21.224052 5.809078 2.890395 -5.149327 -0.775867 -1.609898 3.922101 -2.722484 -4.077973 28.529911 -7.118935 -3.216763 -17.373558 -27.453922 -5.155315 
27.489166 54.698708 -23.145733 0.068724 5.908199 -9.396254 -4.141389 -1.780586 1.958869 5.373749 0.882443 0.891390 1.460749 -2.574162 -1.845244 18.118170 3.920103 -0.817653 -0.966184 -2.090659 -0.113862 -87.358070 11.041085 -6.985978 -65.217758 -0.765184 24.525301 1.515913 -3.326688 -23.527643 0.956406 2.080914 -0.113715 85.926758 -11.149872 -9.022714 45.581310 1.004968 -0.718508 -1.578345 3.315432 18.871824 -13.758330 -9.432368 -7.685423 20.992462 5.799944 2.866147 -5.195838 -0.980553 -1.656425 3.860431 -3.597059 -4.561777 30.459311 -7.016210 -3.366427 -17.155914 -27.004913 -4.858597 
27.703947 54.709663 -22.916233 -0.078484 5.478511 -9.265270 -4.078423 -1.553550 1.462802 5.228647 1.092765 0.657778 1.166653 -2.556452 -1.650206 18.020510 3.940485 -0.723483 -0.966184 -2.090659 -0.113862 -86.455582 12.151948 -6.161931 -73.071693 -0.828743 24.408300 1.530143 -3.335402 -22.952051 0.956406 2.080914 -0.113715 84.455940 -12.237676 -5.935231 52.874115 0.979307 -0.653812 -1.575513 3.314525 16.694090 -13.602287 -9.276604 -7.371023 21.470390 5.799808 2.911231 -5.340419 -1.201373 -1.732815 3.081110 -3.471388 -4.313793 32.417370 -6.885034 -3.572830 -16.654093 -26.692278 -4.572761 
27.948046 54.707771 -22.645283 -0.264613 4.833933 -9.416750 -3.744109 -1.368041 1.139861 5.570296 1.062965 0.507058 0.716203 -2.383990 -1.456417 17.894032 4.009385 -0.613770 -0.966184 -2.090659 -0.113862 -84.823555 12.011440 -5.061397 -80.548347 -0.879322 24.283722 1.525332 -3.326840 -23.860252 0.956406 2.080914 -0.113715 82.638313 -13.157681 -2.979715 61.621838 0.955722 -0.580877 -1.576752 3.304716 15.629640 -13.531351 -8.903498 -7.045798 22.213469 5.829358 2.974603 -5.729225 -1.412926 -1.821206 2.537968 -3.153087 -4.080666 34.338638 -6.728474 -3.718519 -15.410979 -27.271893 -4.161388 
28.217112 54.688938 -22.520111 -0.411521 4.667849 -9.086113 -3.538668 -1.289323 1.094286 5.365253 1.073556 0.487269 -0.006085 -1.932387 -1.670480 17.691021 4.233496 -0.690369 -0.966184 -2.090659 -0.113862 -83.046791 11.306671 -3.923523 -88.512398 -0.904208 24.165651 1.525888 -3.326597 -23.352440 0.956406 2.080914 -0.113715 80.724213 -13.965098 -1.557883 71.023788 0.936668 -0.495523 -1.576304 3.304592 15.326905 -13.480849 -9.068075 -6.946474 22.693733 5.849258 2.994036 -5.994128 -1.769151 -1.919049 1.686498 -3.314127 -4.296767 36.262234 -6.513836 -3.879539 -12.615102 -28.195009 -3.113306 
28.434010 54.631123 -22.351372 -0.509418 4.550602 -8.302009 -3.478672 -1.169912 0.809211 5.132430 1.275728 0.345302 -0.903396 -1.765547 -1.966159 17.300346 4.324890 -0.842680 -0.966184 -2.090659 -0.113862 -80.859253 10.949946 -3.544019 -97.577469 -0.923587 24.011984 1.518619 -3.319191 -26.086248 0.956406 2.080914 -0.113715 78.773628 -14.879531 -0.798671 80.982445 0.938092 -0.400286 -1.575246 3.304310 14.614015 -13.485027 -9.305978 -7.164822 23.086569 5.818427 3.042883 -5.940894 -2.320254 -2.032557 0.886401 -3.420368 -4.661486 38.267330 -6.299454 -4.063415 -11.766620 -28.665306 -2.912518 
28.623596 54.600033 -22.173801 -1.029276 4.979670 -8.350735 -3.303238 -1.114536 0.913898 4.825166 1.798858 0.389495 -2.151920 -1.870423 -2.308968 17.272551 4.460383 -1.009883 -0.966184 -2.090659 -0.113862 -78.545586 9.588587 -4.358848 -108.203606 -0.904689 23.822386 1.500324 -3.324039 -33.262829 0.956406 2.080914 -0.113715 76.715965 -15.326242 -0.897067 91.312843 0.965391 -0.326525 -1.573324 3.303832 13.324955 -13.012531 -10.044705 -6.945023 23.381784 5.809132 3.064203 -6.030794 -2.344751 -2.077721 0.117083 -4.128242 -4.345392 40.400505 -6.103839 -4.248650 -12.034591 -29.270073 -3.138546 
